<svg width="43" height="43" viewBox="0 0 43 43" fill="none" xmlns="http://www.w3.org/2000/svg">
<g clip-path="url(#clip0_8_25)">
<path d="M5.04615 10.0021C7.80815 10.0021 10.0472 7.76304 10.0472 5.00104C10.0472 2.23904 7.80815 0 5.04615 0C2.28415 0 0.045105 2.23904 0.045105 5.00104C0.045105 7.76304 2.28415 10.0021 5.04615 10.0021Z" fill="#7A7A7A"/>
<path d="M37.984 10.0021C40.746 10.0021 42.985 7.76304 42.985 5.00104C42.985 2.23904 40.746 0 37.984 0C35.222 0 32.9829 2.23904 32.9829 5.00104C32.9829 7.76304 35.222 10.0021 37.984 10.0021Z" fill="#7A7A7A"/>
<path d="M21.5151 10.0021C24.2771 10.0021 26.5161 7.76304 26.5161 5.00104C26.5161 2.23904 24.2771 0 21.5151 0C18.7531 0 16.514 2.23904 16.514 5.00104C16.514 7.76304 18.7531 10.0021 21.5151 10.0021Z" fill="#7A7A7A"/>
<path d="M5.01615 26.5013C7.7782 26.5013 10.0173 24.2622 10.0173 21.5002C10.0173 18.7381 7.7782 16.499 5.01615 16.499C2.2541 16.499 0.0150146 18.7381 0.0150146 21.5002C0.0150146 24.2622 2.2541 26.5013 5.01615 26.5013Z" fill="#7A7A7A"/>
<path d="M37.9538 26.5013C40.7159 26.5013 42.955 24.2622 42.955 21.5002C42.955 18.7381 40.7159 16.499 37.9538 16.499C35.1918 16.499 32.9527 18.7381 32.9527 21.5002C32.9527 24.2622 35.1918 26.5013 37.9538 26.5013Z" fill="#7A7A7A"/>
<path d="M21.485 26.5013C24.2471 26.5013 26.4862 24.2622 26.4862 21.5002C26.4862 18.7381 24.2471 16.499 21.485 16.499C18.723 16.499 16.4839 18.7381 16.4839 21.5002C16.4839 24.2622 18.723 26.5013 21.485 26.5013Z" fill="#7A7A7A"/>
<path d="M5.01618 42.9999C7.77818 42.9999 10.0172 40.7608 10.0172 37.9988C10.0172 35.2368 7.77818 32.9978 5.01618 32.9978C2.25418 32.9978 0.0151367 35.2368 0.0151367 37.9988C0.0151367 40.7608 2.25418 42.9999 5.01618 42.9999Z" fill="#7A7A7A"/>
<path d="M37.9539 42.9999C40.7159 42.9999 42.9549 40.7608 42.9549 37.9988C42.9549 35.2368 40.7159 32.9978 37.9539 32.9978C35.1919 32.9978 32.9528 35.2368 32.9528 37.9988C32.9528 40.7608 35.1919 42.9999 37.9539 42.9999Z" fill="#7A7A7A"/>
<path d="M21.4851 42.9999C24.2471 42.9999 26.4861 40.7608 26.4861 37.9988C26.4861 35.2368 24.2471 32.9978 21.4851 32.9978C18.7231 32.9978 16.484 35.2368 16.484 37.9988C16.484 40.7608 18.7231 42.9999 21.4851 42.9999Z" fill="#7A7A7A"/>
</g>
<defs>
<clipPath id="clip0_8_25">
<rect width="43" height="43" fill="white"/>
</clipPath>
</defs>
</svg>
